<mxfile host="app.diagrams.net" modified="2023-12-10T17:21:31.044Z" agent="Mozilla/5.0 (Windows NT 10.0; Win64; x64) AppleWebKit/537.36 (KHTML, like Gecko) Chrome/120.0.0.0 Safari/537.36 Edg/120.0.0.0" etag="VO7PTmBUq5FWvAuhdxEw" version="21.3.5" type="device">
  <diagram id="C5RBs43oDa-KdzZeNtuy" name="Page-1">
    <mxGraphModel dx="1958" dy="1543" grid="1" gridSize="10" guides="1" tooltips="1" connect="1" arrows="1" fold="1" page="0" pageScale="1" pageWidth="827" pageHeight="1169" math="0" shadow="0">
      <root>
        <mxCell id="WIyWlLk6GJQsqaUBKTNV-0" />
        <mxCell id="WIyWlLk6GJQsqaUBKTNV-1" parent="WIyWlLk6GJQsqaUBKTNV-0" />
        <mxCell id="5oSjEgpUHSgcU6z2MBnJ-5" value="Puzzle" style="swimlane;fontStyle=1;align=center;verticalAlign=top;childLayout=stackLayout;horizontal=1;startSize=26;horizontalStack=0;resizeParent=1;resizeParentMax=0;resizeLast=0;collapsible=1;marginBottom=0;whiteSpace=wrap;html=1;fontSize=16;" parent="WIyWlLk6GJQsqaUBKTNV-1" vertex="1">
          <mxGeometry x="-110" y="-290" width="340" height="390" as="geometry" />
        </mxCell>
        <mxCell id="5oSjEgpUHSgcU6z2MBnJ-6" value="+ Score: int&lt;br&gt;+ SymbolsLeft: int&lt;br&gt;+ GridSize: int&lt;br&gt;+ Grid: lst&lt;br&gt;+ AllowedPatterns: lst&lt;br&gt;+ AllowedSymbols: lst" style="text;strokeColor=none;fillColor=none;align=left;verticalAlign=top;spacingLeft=4;spacingRight=4;overflow=hidden;rotatable=0;points=[[0,0.5],[1,0.5]];portConstraint=eastwest;whiteSpace=wrap;html=1;fontSize=16;" parent="5oSjEgpUHSgcU6z2MBnJ-5" vertex="1">
          <mxGeometry y="26" width="340" height="184" as="geometry" />
        </mxCell>
        <mxCell id="5oSjEgpUHSgcU6z2MBnJ-7" value="" style="line;strokeWidth=1;fillColor=none;align=left;verticalAlign=middle;spacingTop=-1;spacingLeft=3;spacingRight=3;rotatable=0;labelPosition=right;points=[];portConstraint=eastwest;strokeColor=inherit;fontSize=16;" parent="5oSjEgpUHSgcU6z2MBnJ-5" vertex="1">
          <mxGeometry y="210" width="340" height="8" as="geometry" />
        </mxCell>
        <mxCell id="5oSjEgpUHSgcU6z2MBnJ-8" value="+ LoadPuzzle(Str)&amp;nbsp;&lt;br&gt;+ AttemptPuzzle()&lt;br&gt;+ GetCell(int, int)&lt;br&gt;+ CheckForMatchWithPattern(int, int)&lt;br&gt;+ GetSymbolFromUser()&lt;br&gt;+ CreateHorizontalLine()&lt;br&gt;+ DisplayPuzzle()" style="text;strokeColor=none;fillColor=none;align=left;verticalAlign=top;spacingLeft=4;spacingRight=4;overflow=hidden;rotatable=0;points=[[0,0.5],[1,0.5]];portConstraint=eastwest;whiteSpace=wrap;html=1;fontSize=16;" parent="5oSjEgpUHSgcU6z2MBnJ-5" vertex="1">
          <mxGeometry y="218" width="340" height="172" as="geometry" />
        </mxCell>
        <mxCell id="5oSjEgpUHSgcU6z2MBnJ-9" value="Cell" style="swimlane;fontStyle=1;align=center;verticalAlign=top;childLayout=stackLayout;horizontal=1;startSize=26;horizontalStack=0;resizeParent=1;resizeParentMax=0;resizeLast=0;collapsible=1;marginBottom=0;whiteSpace=wrap;html=1;fontSize=16;" parent="WIyWlLk6GJQsqaUBKTNV-1" vertex="1">
          <mxGeometry x="450" y="-290" width="290" height="350" as="geometry" />
        </mxCell>
        <mxCell id="5oSjEgpUHSgcU6z2MBnJ-10" value="+ Symbol: str&lt;br&gt;+ SymbolsNotAllowed: lst" style="text;strokeColor=none;fillColor=none;align=left;verticalAlign=top;spacingLeft=4;spacingRight=4;overflow=hidden;rotatable=0;points=[[0,0.5],[1,0.5]];portConstraint=eastwest;whiteSpace=wrap;html=1;fontSize=16;" parent="5oSjEgpUHSgcU6z2MBnJ-9" vertex="1">
          <mxGeometry y="26" width="290" height="154" as="geometry" />
        </mxCell>
        <mxCell id="5oSjEgpUHSgcU6z2MBnJ-11" value="" style="line;strokeWidth=1;fillColor=none;align=left;verticalAlign=middle;spacingTop=-1;spacingLeft=3;spacingRight=3;rotatable=0;labelPosition=right;points=[];portConstraint=eastwest;strokeColor=inherit;fontSize=16;" parent="5oSjEgpUHSgcU6z2MBnJ-9" vertex="1">
          <mxGeometry y="180" width="290" height="8" as="geometry" />
        </mxCell>
        <mxCell id="5oSjEgpUHSgcU6z2MBnJ-12" value="+ GetSymbol()&lt;br&gt;+ IsEmpty()&lt;br&gt;+ ChangeSymbolInCel(str)&lt;br&gt;+ CheckSymbolAllowed(str)&lt;br&gt;+ AddToNotAllowedSymbols(str)&lt;br&gt;+ UpdateCell()" style="text;strokeColor=none;fillColor=none;align=left;verticalAlign=top;spacingLeft=4;spacingRight=4;overflow=hidden;rotatable=0;points=[[0,0.5],[1,0.5]];portConstraint=eastwest;whiteSpace=wrap;html=1;fontSize=16;" parent="5oSjEgpUHSgcU6z2MBnJ-9" vertex="1">
          <mxGeometry y="188" width="290" height="162" as="geometry" />
        </mxCell>
        <mxCell id="5oSjEgpUHSgcU6z2MBnJ-13" value="Pattern" style="swimlane;fontStyle=1;align=center;verticalAlign=top;childLayout=stackLayout;horizontal=1;startSize=26;horizontalStack=0;resizeParent=1;resizeParentMax=0;resizeLast=0;collapsible=1;marginBottom=0;whiteSpace=wrap;html=1;fontSize=16;" parent="WIyWlLk6GJQsqaUBKTNV-1" vertex="1">
          <mxGeometry x="-45" y="200" width="210" height="300" as="geometry" />
        </mxCell>
        <mxCell id="5oSjEgpUHSgcU6z2MBnJ-14" value="+ Symbol: str&lt;br&gt;+ patternSequence: str" style="text;strokeColor=none;fillColor=none;align=left;verticalAlign=top;spacingLeft=4;spacingRight=4;overflow=hidden;rotatable=0;points=[[0,0.5],[1,0.5]];portConstraint=eastwest;whiteSpace=wrap;html=1;fontSize=16;" parent="5oSjEgpUHSgcU6z2MBnJ-13" vertex="1">
          <mxGeometry y="26" width="210" height="134" as="geometry" />
        </mxCell>
        <mxCell id="5oSjEgpUHSgcU6z2MBnJ-15" value="" style="line;strokeWidth=1;fillColor=none;align=left;verticalAlign=middle;spacingTop=-1;spacingLeft=3;spacingRight=3;rotatable=0;labelPosition=right;points=[];portConstraint=eastwest;strokeColor=inherit;fontSize=16;" parent="5oSjEgpUHSgcU6z2MBnJ-13" vertex="1">
          <mxGeometry y="160" width="210" height="8" as="geometry" />
        </mxCell>
        <mxCell id="5oSjEgpUHSgcU6z2MBnJ-16" value="+ MatchesPattern(str, str)&lt;br&gt;+ GetPatternSequence()" style="text;strokeColor=none;fillColor=none;align=left;verticalAlign=top;spacingLeft=4;spacingRight=4;overflow=hidden;rotatable=0;points=[[0,0.5],[1,0.5]];portConstraint=eastwest;whiteSpace=wrap;html=1;fontSize=16;" parent="5oSjEgpUHSgcU6z2MBnJ-13" vertex="1">
          <mxGeometry y="168" width="210" height="132" as="geometry" />
        </mxCell>
        <mxCell id="5oSjEgpUHSgcU6z2MBnJ-23" style="edgeStyle=none;curved=1;rounded=0;orthogonalLoop=1;jettySize=auto;html=1;fontSize=12;startSize=8;endSize=8;" parent="WIyWlLk6GJQsqaUBKTNV-1" source="5oSjEgpUHSgcU6z2MBnJ-17" target="5oSjEgpUHSgcU6z2MBnJ-12" edge="1">
          <mxGeometry relative="1" as="geometry" />
        </mxCell>
        <mxCell id="5oSjEgpUHSgcU6z2MBnJ-17" value="BlockedCell" style="swimlane;fontStyle=1;align=center;verticalAlign=top;childLayout=stackLayout;horizontal=1;startSize=26;horizontalStack=0;resizeParent=1;resizeParentMax=0;resizeLast=0;collapsible=1;marginBottom=0;whiteSpace=wrap;html=1;fontSize=16;" parent="WIyWlLk6GJQsqaUBKTNV-1" vertex="1">
          <mxGeometry x="450" y="200" width="290" height="140" as="geometry" />
        </mxCell>
        <mxCell id="5oSjEgpUHSgcU6z2MBnJ-18" value="+ Symbol: str" style="text;strokeColor=none;fillColor=none;align=left;verticalAlign=top;spacingLeft=4;spacingRight=4;overflow=hidden;rotatable=0;points=[[0,0.5],[1,0.5]];portConstraint=eastwest;whiteSpace=wrap;html=1;fontSize=16;" parent="5oSjEgpUHSgcU6z2MBnJ-17" vertex="1">
          <mxGeometry y="26" width="290" height="44" as="geometry" />
        </mxCell>
        <mxCell id="5oSjEgpUHSgcU6z2MBnJ-19" value="" style="line;strokeWidth=1;fillColor=none;align=left;verticalAlign=middle;spacingTop=-1;spacingLeft=3;spacingRight=3;rotatable=0;labelPosition=right;points=[];portConstraint=eastwest;strokeColor=inherit;fontSize=16;" parent="5oSjEgpUHSgcU6z2MBnJ-17" vertex="1">
          <mxGeometry y="70" width="290" height="8" as="geometry" />
        </mxCell>
        <mxCell id="5oSjEgpUHSgcU6z2MBnJ-20" value="+ CheckSymbolAllowed" style="text;strokeColor=none;fillColor=none;align=left;verticalAlign=top;spacingLeft=4;spacingRight=4;overflow=hidden;rotatable=0;points=[[0,0.5],[1,0.5]];portConstraint=eastwest;whiteSpace=wrap;html=1;fontSize=16;" parent="5oSjEgpUHSgcU6z2MBnJ-17" vertex="1">
          <mxGeometry y="78" width="290" height="62" as="geometry" />
        </mxCell>
        <mxCell id="5oSjEgpUHSgcU6z2MBnJ-24" value="" style="endArrow=diamondThin;endFill=0;endSize=24;html=1;rounded=0;fontSize=12;curved=1;entryX=0.456;entryY=-0.01;entryDx=0;entryDy=0;entryPerimeter=0;" parent="WIyWlLk6GJQsqaUBKTNV-1" target="5oSjEgpUHSgcU6z2MBnJ-13" edge="1">
          <mxGeometry width="160" relative="1" as="geometry">
            <mxPoint x="50" y="100" as="sourcePoint" />
            <mxPoint x="240" y="160" as="targetPoint" />
          </mxGeometry>
        </mxCell>
        <mxCell id="5oSjEgpUHSgcU6z2MBnJ-26" value="" style="endArrow=none;startArrow=diamondThin;endFill=0;startFill=1;html=1;verticalAlign=bottom;labelBackgroundColor=none;strokeWidth=1;startSize=8;endSize=8;rounded=0;fontSize=12;curved=1;exitX=-0.015;exitY=0.027;exitDx=0;exitDy=0;exitPerimeter=0;entryX=1.013;entryY=0.031;entryDx=0;entryDy=0;entryPerimeter=0;" parent="WIyWlLk6GJQsqaUBKTNV-1" source="5oSjEgpUHSgcU6z2MBnJ-9" target="5oSjEgpUHSgcU6z2MBnJ-5" edge="1">
          <mxGeometry width="160" relative="1" as="geometry">
            <mxPoint x="420" y="-240" as="sourcePoint" />
            <mxPoint x="460" y="50" as="targetPoint" />
          </mxGeometry>
        </mxCell>
      </root>
    </mxGraphModel>
  </diagram>
</mxfile>
